{"accessors" : [{"bufferView" : 0, "byteOffset" : 0, "componentType" : 5123, "count" : 29172, "type" : "SCALAR", "max" : [8745], "min" : [0]}, {"bufferView" : 1, "byteOffset" : 0, "componentType" : 5126, "count" : 8746, "type" : "VEC3", "max" : [1.4142135381698608, 1.4142135381698608, 1.600000023841858], "min" : [-1.4142135381698608, -1.4115798473358154, 0], "name" : "POSITION"}, {"bufferView" : 1, "byteOffset" : 12, "componentType" : 5126, "count" : 8746, "type" : "VEC3", "max" : [1.0000044107437134, 1.0000044107437134, 1.0000044107437134], "min" : [-1.0000044107437134, -1.0000044107437134, -1.0000044107437134], "name" : "NORMAL"}, {"bufferView" : 1, "byteOffset" : 24, "componentType" : 5126, "count" : 8746, "type" : "VEC2", "max" : [0.9971593022346497, 0.9971592426300049], "min" : [0.0028407268691807985, 0.005303561687469482], "name" : "TEXCOORD_0"}], "asset" : {"generator" : "Aspose.3D 24.2.0", "version" : "2.0"}, "buffers" : [{"uri" : "buffer.bin", "byteLength" : 338224}], "bufferViews" : [{"buffer" : 0, "byteOffset" : 0, "byteLength" : 58344, "target" : 34963}, {"buffer" : 0, "byteOffset" : 58348, "byteLength" : 279872, "byteStride" : 32, "target" : 34962}], "images" : [{"uri" : "D:\\3D Dokumenty\\Turbosquid\\Isometric Room\\Texture_IsometricRoom_emis.png"}, {"uri" : "D:\\3D Dokumenty\\Turbosquid\\Isometric Room\\Texture_IsometricRoom_norm.png"}, {"uri" : "D:\\3D Dokumenty\\Turbosquid\\Isometric Room\\Texture_IsometricRoom_bcolor.png"}], "materials" : [{"name" : "Isometric Room", "pbrMetallicRoughness" : {"baseColorFactor" : [1, 1, 1, 1], "baseColorTexture" : {"index" : 2, "texCoord" : 0}, "metallicFactor" : 1, "roughnessFactor" : 1}, "normalTexture" : {"index" : 1, "texCoord" : 0, "scale" : 1}, "emissiveTexture" : {"index" : 0, "texCoord" : 0}, "emissiveFactor" : [1, 1, 1], "alphaMode" : "OPAQUE", "doubleSided" : false}], "meshes" : [{"primitives" : [{"attributes" : {"POSITION" : 1, "NORMAL" : 2, "TEXCOORD_0" : 3}, "indices" : 0, "material" : 0, "mode" : 4}], "name" : "Cube.002"}], "nodes" : [{"matrix" : [100, 0, 0, 0, 0, -1.6292067955264296E-05, -99.99999999999866, 0, 0, 99.99999999999866, -1.6292067955264296E-05, 0, 0, 0, 0, 1], "mesh" : 0, "name" : "Isometric Room"}], "samplers" : [{"magFilter" : 9729, "minFilter" : 9729, "wrapS" : 10497, "wrapT" : 10497}, {"magFilter" : 9729, "minFilter" : 9729, "wrapS" : 10497, "wrapT" : 10497}, {"magFilter" : 9729, "minFilter" : 9729, "wrapS" : 10497, "wrapT" : 10497}], "scene" : 0, "scenes" : [{"nodes" : [0]}], "textures" : [{"sampler" : 0, "source" : 0, "name" : "emission_color_texture"}, {"sampler" : 1, "source" : 1, "name" : "normalmap_texture"}, {"sampler" : 2, "source" : 2, "name" : "base_color_texture"}]}